HIERARCHY
ROOT Hips
{
	OFFSET 0.00000 0.00000 0.00000
	CHANNELS 6 Xposition Yposition Zposition Zrotation Yrotation Xrotation 
	JOINT LHipJoint
	{
		OFFSET 0 0 0
		CHANNELS 3 Zrotation Yrotation Xrotation
		JOINT LeftHip
		{
			OFFSET 1.34019 -1.87553 0.90315
			CHANNELS 3 Zrotation Yrotation Xrotation
			JOINT LeftKnee
			{
				OFFSET 2.55316 -7.01474 0.00000
				CHANNELS 3 Zrotation Yrotation Xrotation
				JOINT LeftAnkle
				{
					OFFSET 2.64657 -7.27139 0.00000
					CHANNELS 3 Zrotation Yrotation Xrotation
					JOINT LeftToe
					{
						OFFSET 0.24207 -0.66507 2.14489
						CHANNELS 3 Zrotation Yrotation Xrotation
						End Site
						{
							OFFSET 0.00000 -0.00000 1.12451
						}
					}
				}
			}
		}
	}
	JOINT RHipJoint
	{
		OFFSET 0 0 0
		CHANNELS 3 Zrotation Yrotation Xrotation
		JOINT RightHip
		{
			OFFSET -1.28320 -1.87553 0.90315
			CHANNELS 3 Zrotation Yrotation Xrotation
			JOINT RightKnee
			{
				OFFSET -2.60484 -7.15674 0.00000
				CHANNELS 3 Zrotation Yrotation Xrotation
				JOINT RightAnkle
				{
					OFFSET -2.60296 -7.15159 0.00000
					CHANNELS 3 Zrotation Yrotation Xrotation
					JOINT RightToe
					{
						OFFSET -0.31082 -0.85398 2.28998
						CHANNELS 3 Zrotation Yrotation Xrotation
						End Site
						{
							OFFSET -0.00000 -0.00000 1.21611
						}
					}
				}
			}
		}
	}
	JOINT lowerback
	{
		OFFSET 0 0 0
		CHANNELS 3 Zrotation Yrotation Xrotation
		JOINT Chest
		{
			OFFSET -0.00160 2.05581 -0.15156
			CHANNELS 3 Zrotation Yrotation Xrotation
			JOINT Chest2
			{
				OFFSET 0.04594 2.06326 -0.01617
				CHANNELS 3 Zrotation Yrotation Xrotation
				JOINT lowerneck
				{
					OFFSET 0 0 0
					CHANNELS 3 Zrotation Yrotation Xrotation
					JOINT Neck
					{
						OFFSET 0.03753 1.73883 0.26751
						CHANNELS 3 Zrotation Yrotation Xrotation
						JOINT Head
						{
							OFFSET -0.09795 1.76129 -0.31794
							CHANNELS 3 Zrotation Yrotation Xrotation
							End Site
							{
								OFFSET -0.03611 1.79987 -0.13846
							}
						}
					}
				}
				JOINT LeftCollar
				{
					OFFSET 0 0 0
					CHANNELS 3 Zrotation Yrotation Xrotation
					JOINT LeftShoulder
					{
						OFFSET 3.30667 1.29205 -0.22445
CHANNELS 3 Zrotation Xrotation Yrotation
						JOINT LeftElbow
						{
OFFSET 0 -4.927850 -0.000000
CHANNELS 3 Zrotation Xrotation Yrotation
							JOINT LeftWrist
							{
OFFSET 0 -3.440520 0.000000
CHANNELS 3 Zrotation Xrotation Yrotation
								JOINT lhand
								{
									OFFSET 0 0 0
CHANNELS 3 Zrotation Xrotation Yrotation
									JOINT LFingers
									{
OFFSET 0 -0.654330 0.000000
CHANNELS 3 Zrotation Xrotation Yrotation
										End Site
										{
OFFSET 0 -0.527530 0.000000
										}
									}
								}
								JOINT LThumb
								{
OFFSET 0 0.000000 0.000000
CHANNELS 3 Zrotation Xrotation Yrotation
									End Site
									{
OFFSET 0 -0.535590 0.535590
									}
								}
							}
						}
					}
				}
				JOINT RightCollar
				{
					OFFSET 0 0 0
					CHANNELS 3 Zrotation Yrotation Xrotation
					JOINT RightShoulder
					{
						OFFSET -3.20032 1.49783 -0.27688
CHANNELS 3 Zrotation Xrotation Yrotation
						JOINT RightElbow
						{
OFFSET 0 -5.091810 -0.000000
CHANNELS 3 Zrotation Xrotation Yrotation
							JOINT RightWrist
							{
OFFSET 0 -3.498650 -0.000000
CHANNELS 3 Zrotation Xrotation Yrotation
								JOINT rhand
								{
									OFFSET 0 0 0
CHANNELS 3 Zrotation Xrotation Yrotation
									JOINT RFingers
									{
OFFSET 0 -0.666410 0.000000
CHANNELS 3 Zrotation Xrotation Yrotation
										End Site
										{
OFFSET 0 -0.537280 0.000000
										}
									}
								}
								JOINT RThumb
								{
OFFSET 0 0.000000 0.000000
CHANNELS 3 Zrotation Xrotation Yrotation
									End Site
									{
OFFSET 0 -0.545480 0.545480
									}
								}
							}
						}
					}
				}
			}
		}
	}
}
MOTION
Frames: 10
Frame Time: 0.008333333333333333
0.527641 17.936843 -19.717434 0.798387 -3.794519 10.936148 0.000000 0.000000 0.000000 -21.723682 -5.602061 -27.799771 2.646092 10.098186 29.295755 1.236786 5.451578 -23.622551 0.859071 -5.910512 -16.524938 0.000000 0.000000 0.000000 15.600089 -0.092915 -5.397677 -7.229341 -15.511259 49.717693 -2.366842 -19.177978 28.898690 -0.045700 -1.371870 3.772675 -0.374689 2.329843 8.465986 1.468004 3.154233 -1.141701 1.314383 1.591092 -6.048152 4.481912 1.198023 -17.996920 -7.788106 2.077880 17.552182 -3.123489 0.458885 8.570530 0.000000 0.000000 0.000000 -0.436506 12.089589 12.647794 6.361149 -10.863132 0.605462 15.935177 15.336131 0.502658 0.000000 0.000000 0.000000 -7.125000 0.000000 0.000000 -8.315457 29.409207 -3.191230 0.000000 0.000000 0.000000 -6.491457 -3.936827 29.728168 -17.926470 -28.062564 -4.514778 -19.165456 -9.001333 0.712842 0.000000 0.000000 0.000000 7.125000 0.000000 0.000000 5.872829 30.704813 2.060124
0.539572 17.944676 -19.582262 1.201746 -3.974498 10.735778 0.000000 0.000000 0.000000 -22.341269 -5.272339 -26.896946 2.556148 9.937992 28.777255 1.183961 5.467054 -23.197765 0.852527 -5.888523 -16.461289 0.000000 0.000000 0.000000 14.845010 -0.115186 -6.774463 -7.868198 -16.007390 52.063662 -2.022075 -18.878957 26.932756 -0.054293 -1.502201 4.131756 -0.876897 2.261390 8.530350 1.390314 3.004992 -1.115771 1.533563 1.533261 -6.074720 4.551258 1.286456 -17.922506 -7.807502 2.190983 17.615077 -3.128382 0.515529 8.587247 0.000000 0.000000 0.000000 -0.577300 11.652619 11.718906 6.453555 -11.016403 0.623093 16.045705 14.581345 0.341061 0.000000 0.000000 0.000000 -7.125000 0.000000 0.000000 -8.242797 29.576318 -3.129643 0.000000 0.000000 0.000000 -6.504144 -3.474170 29.724721 -17.727532 -27.806305 -4.421704 -19.020158 -8.679253 0.858132 0.000000 0.000000 0.000000 7.125000 0.000000 0.000000 5.997867 30.855765 2.082532
0.550887 17.952161 -19.447604 1.632477 -4.138564 10.537296 0.000000 0.000000 0.000000 -22.983682 -4.953932 -25.986277 2.462447 9.769153 28.232492 1.128035 5.481256 -22.742342 0.841978 -5.853105 -16.358748 0.000000 0.000000 0.000000 14.066583 -0.156144 -8.178271 -8.512497 -16.482084 54.386037 -1.664124 -18.565029 24.834027 -0.060422 -1.586002 4.362827 -1.408696 2.186016 8.597650 1.306690 2.842754 -1.092552 1.765105 1.469969 -6.105600 4.618263 1.376327 -17.853144 -7.819936 2.305605 17.685795 -3.130504 0.573282 8.607578 0.000000 0.000000 0.000000 -0.711134 11.211399 10.696444 6.558159 -11.189839 0.643189 16.139642 13.763375 0.193202 0.000000 0.000000 0.000000 -7.125000 0.000000 0.000000 -8.181862 29.729363 -3.075839 0.000000 0.000000 0.000000 -6.512807 -3.007550 29.691601 -17.521920 -27.540641 -4.325941 -18.860631 -8.327255 0.991553 0.000000 0.000000 0.000000 7.125000 0.000000 0.000000 6.133646 30.993842 2.110053
0.560908 17.958126 -19.313901 2.093926 -4.253739 10.342978 0.000000 0.000000 0.000000 -23.647305 -4.653753 -25.074651 2.366270 9.588949 27.657010 1.070083 5.470535 -22.235216 0.812582 -5.751694 -16.065822 0.000000 0.000000 0.000000 13.274878 -0.243122 -9.628213 -9.147962 -16.889828 56.582444 -1.330422 -18.201704 22.631778 -0.068295 -1.683699 4.632379 -1.967612 2.093427 8.678058 1.215921 2.652554 -1.079010 2.008799 1.394130 -6.149702 4.690219 1.471261 -17.785132 -7.817687 2.423321 17.764670 -3.128125 0.634242 8.631117 0.000000 0.000000 0.000000 -0.815599 10.767028 9.455410 6.695056 -11.416159 0.670205 16.183957 12.798059 0.096089 0.000000 0.000000 0.000000 -7.125000 0.000000 0.000000 -8.155414 29.829861 -3.046001 0.000000 0.000000 0.000000 -6.512131 -2.512237 29.591644 -17.312763 -27.267664 -4.229952 -18.719894 -8.009407 1.099263 0.000000 0.000000 0.000000 7.125000 0.000000 0.000000 6.253277 31.104688 2.134761
0.570533 17.963548 -19.180503 2.548067 -4.352844 10.152762 0.000000 0.000000 0.000000 -24.297913 -4.358800 -24.170576 2.271511 9.409224 27.084795 1.012902 5.448346 -21.721244 0.776853 -5.626200 -15.703909 0.000000 0.000000 0.000000 12.500698 -0.338195 -11.088534 -9.774638 -17.275965 58.725396 -1.012790 -17.825794 20.445458 -0.080550 -1.823438 5.018200 -2.517955 1.995266 8.759226 1.127700 2.455481 -1.067249 2.251658 1.314779 -6.193975 4.766861 1.568243 -17.711866 -7.815530 2.542308 17.833846 -3.126200 0.696326 8.650614 0.000000 0.000000 0.000000 -0.911196 10.318132 8.161871 6.842282 -11.659256 0.699615 16.214720 11.803263 0.010669 0.000000 0.000000 0.000000 -7.125000 0.000000 0.000000 -8.138595 29.918217 -3.022224 0.000000 0.000000 0.000000 -6.510267 -2.010913 29.469539 -17.101220 -26.990693 -4.133360 -18.584880 -7.702234 1.190317 0.000000 0.000000 0.000000 7.125000 0.000000 0.000000 6.367235 31.198062 2.159943
0.579196 17.967615 -19.047848 2.976971 -4.412365 9.973787 0.000000 0.000000 0.000000 -24.908149 -4.076400 -23.288371 2.181169 9.232429 26.526183 0.958213 5.396545 -21.194632 0.725464 -5.440388 -15.169399 0.000000 0.000000 0.000000 11.778787 -0.450283 -12.572431 -10.377213 -17.609046 60.731662 -0.738110 -17.420404 18.319149 -0.105184 -2.082325 5.733512 -3.039912 1.883414 8.840787 1.047788 2.242443 -1.059293 2.490449 1.227030 -6.236936 4.856320 1.670430 -17.623292 -7.815648 2.664532 17.873978 -3.126200 0.761210 8.658040 0.000000 0.000000 0.000000 -0.985273 9.856639 6.747042 7.014834 -11.943424 0.734974 16.213247 10.743733 -0.048027 0.000000 0.000000 0.000000 -7.125000 0.000000 0.000000 -8.144783 29.978799 -3.012618 0.000000 0.000000 0.000000 -6.506260 -1.496205 29.292804 -16.883291 -26.703225 -4.035062 -18.463776 -7.421131 1.236932 0.000000 0.000000 0.000000 7.125000 0.000000 0.000000 6.467065 31.244854 2.186874
0.587396 17.970425 -18.915391 3.366506 -4.445045 9.807340 0.000000 0.000000 0.000000 -25.465530 -3.810263 -22.432180 2.097966 9.066080 26.003171 0.907987 5.333010 -20.689472 0.664457 -5.208432 -14.504951 0.000000 0.000000 0.000000 11.122192 -0.564024 -14.064194 -10.950700 -17.904180 62.613045 -0.493015 -17.015146 16.239116 -0.136792 -2.370663 6.531758 -3.516286 1.764785 8.918051 0.977463 2.025175 -1.054114 2.715026 1.135942 -6.275897 4.931333 1.766271 -17.533495 -7.797949 2.778327 17.916292 -3.118796 0.823020 8.665002 0.000000 0.000000 0.000000 -1.037501 9.384039 5.255294 7.206028 -12.257440 0.775192 16.202617 9.652866 -0.108177 0.000000 0.000000 0.000000 -7.125000 0.000000 0.000000 -8.158276 30.040703 -3.005491 0.000000 0.000000 0.000000 -6.499476 -0.971382 29.070848 -16.663247 -26.411196 -3.936731 -18.367661 -7.150340 1.292306 0.000000 0.000000 0.000000 7.125000 0.000000 0.000000 6.547823 31.301133 2.205575
0.595234 17.972252 -18.783090 3.725223 -4.456713 9.650699 0.000000 0.000000 0.000000 -25.981535 -3.556857 -21.596353 2.020354 8.907908 25.508028 0.861255 5.260288 -20.201107 0.595920 -4.940353 -13.738782 0.000000 0.000000 0.000000 10.516729 -0.679058 -15.562117 -11.501415 -18.169608 64.396668 -0.271078 -16.609992 14.195311 -0.173860 -2.682057 7.394928 -3.956976 1.640852 8.991951 0.914642 1.804594 -1.051109 2.928476 1.042241 -6.311728 4.995038 1.857143 -17.442741 -7.766303 2.885524 17.960314 -3.105595 0.882423 8.671603 0.000000 0.000000 0.000000 -1.072624 8.902745 3.703332 7.411817 -12.594824 0.819214 16.184820 8.537469 -0.169466 0.000000 0.000000 0.000000 -7.125000 0.000000 0.000000 -8.177488 30.103642 -3.000305 0.000000 0.000000 0.000000 -6.490518 -0.438641 28.813494 -16.441546 -26.115595 -3.838374 -18.291109 -6.887624 1.354538 0.000000 0.000000 0.000000 7.125000 0.000000 0.000000 6.613649 31.364838 2.217833
0.602308 17.971940 -18.650992 4.009548 -4.426833 9.517125 0.000000 0.000000 0.000000 -26.401763 -3.331100 -20.817301 1.957151 8.775398 25.095831 0.821803 5.180184 -19.763608 0.522138 -4.622271 -12.835846 0.000000 0.000000 0.000000 10.033928 -0.784469 -17.061923 -11.996019 -18.383506 65.970202 -0.086771 -16.237221 12.194583 -0.218260 -2.995234 8.266398 -4.311513 1.505106 9.053682 0.868930 1.578463 -1.049427 3.112953 0.943143 -6.335440 5.094334 1.952446 -17.364817 -7.763578 2.994248 17.986311 -3.107873 0.941927 8.675555 0.000000 0.000000 0.000000 -1.067878 8.399302 2.072141 7.646222 -12.977167 0.871536 16.151849 7.399260 -0.256061 0.000000 0.000000 0.000000 -7.125000 0.000000 0.000000 -8.210855 30.192447 -2.995170 0.000000 0.000000 0.000000 -6.475297 0.096086 28.484193 -16.210833 -25.804973 -3.737675 -18.249080 -6.631221 1.451088 0.000000 0.000000 0.000000 7.125000 0.000000 0.000000 6.654933 31.465051 2.215681
0.609164 17.970888 -18.518809 4.268484 -4.386207 9.390688 0.000000 0.000000 0.000000 -26.789877 -3.114698 -20.057250 1.899082 8.652532 24.714407 0.784936 5.100651 -19.347383 0.448289 -4.291938 -11.900168 0.000000 0.000000 0.000000 9.593234 -0.882702 -18.559888 -12.469529 -18.580825 67.468289 0.085055 -15.873064 10.201885 -0.262996 -3.296615 9.106021 -4.637155 1.367117 9.110247 0.828825 1.352917 -1.047471 3.287198 0.843372 -6.354102 5.195263 2.045402 -17.291819 -7.762618 3.099390 18.009530 -3.111465 0.999616 8.679278 0.000000 0.000000 0.000000 -1.049668 7.887290 0.423162 7.890075 -13.374171 0.926808 16.118637 6.258239 -0.345703 0.000000 0.000000 0.000000 -7.125000 0.000000 0.000000 -8.244726 30.284378 -2.989541 0.000000 0.000000 0.000000 -6.458855 0.632564 28.130281 -15.978377 -25.490993 -3.636795 -18.218147 -6.378402 1.562722 0.000000 0.000000 0.000000 7.125000 0.000000 0.000000 6.688690 31.581224 2.208336
